<?xml version="1.0" encoding="UTF-8" standalone="no"?>
<svg
   version="1.0"
   width="71.885986pt"
   height="113.00001pt"
   viewBox="0 0 71.885986 113.00001"
   preserveAspectRatio="xMidYMid"
   id="svg1"
   xmlns="http://www.w3.org/2000/svg"
   xmlns:svg="http://www.w3.org/2000/svg">
  <defs
     id="defs1" />
  <g
     transform="matrix(0.1,0,0,-0.1,-42.000001,126)"
     fill="#000000"
     stroke="none"
     id="g1">
    <path
       d="m 427,1253 c -4,-3 -7,-174 -7,-378 0,-391 3,-426 52,-647 12,-54 25,-98 28,-98 3,0 11,29 17,64 13,75 59,183 84,196 9,6 31,7 47,4 26,-5 30,-2 44,33 15,37 54,219 60,278 l 3,30 95,6 c 128,8 176,23 221,68 98,98 88,326 -18,397 -64,43 -144,54 -391,54 -126,0 -232,-3 -235,-7 z m 470,-161 c 37,-23 38,-137 2,-173 -17,-17 -36,-19 -153,-19 H 611 l -3,100 -3,100 h 140 c 77,0 145,-4 152,-8 z M 679,698 c 0,-51 -30,-150 -45,-155 -17,-6 -25,24 -31,115 l -6,82 h 42 41 z"
       id="path1"
       style="fill:#d64d4d;fill-opacity:1" />
  </g>
</svg>
