<?xml version="1.0" standalone="no"?>
<!DOCTYPE svg PUBLIC "-//W3C//DTD SVG 20010904//EN"
 "http://www.w3.org/TR/2001/REC-SVG-20010904/DTD/svg10.dtd">
<svg version="1.0" xmlns="http://www.w3.org/2000/svg"
 width="144.000000pt" height="144.000000pt" viewBox="0 0 144.000000 144.000000"
 preserveAspectRatio="xMidYMid meet">

<g transform="translate(0.000000,144.000000) scale(0.100000,-0.100000)"
fill="#000000" stroke="none">
<path d="M427 1253 c-4 -3 -7 -174 -7 -378 0 -391 3 -426 52 -647 12 -54 25
-98 28 -98 3 0 11 29 17 64 13 75 59 183 84 196 9 6 31 7 47 4 26 -5 30 -2 44
33 15 37 54 219 60 278 l3 30 95 6 c128 8 176 23 221 68 98 98 88 326 -18 397
-64 43 -144 54 -391 54 -126 0 -232 -3 -235 -7z m470 -161 c37 -23 38 -137 2
-173 -17 -17 -36 -19 -153 -19 l-135 0 -3 100 -3 100 140 0 c77 0 145 -4 152
-8z m-218 -394 c0 -51 -30 -150 -45 -155 -17 -6 -25 24 -31 115 l-6 82 42 0
41 0 -1 -42z"/>
</g>
</svg>
